<svg id="visual" viewBox="0 0 960 540" width="960" height="540" xmlns="http://www.w3.org/2000/svg" xmlns:xlink="http://www.w3.org/1999/xlink" version="1.1"><rect x="0" y="0" width="960" height="540" fill="#A5C0CC"></rect><path d="M0 337L12.3 327C24.7 317 49.3 297 74 298.7C98.7 300.3 123.3 323.7 148 317.2C172.7 310.7 197.3 274.3 221.8 268.2C246.3 262 270.7 286 295.2 290.7C319.7 295.3 344.3 280.7 369 265.5C393.7 250.3 418.3 234.7 443 231.2C467.7 227.7 492.3 236.3 517 251.2C541.7 266 566.3 287 591 297.7C615.7 308.3 640.3 308.7 664.8 304.8C689.3 301 713.7 293 738.2 293.7C762.7 294.3 787.3 303.7 812 315.3C836.7 327 861.3 341 886 338.2C910.7 335.3 935.3 315.7 947.7 305.8L960 296L960 541L947.7 541C935.3 541 910.7 541 886 541C861.3 541 836.7 541 812 541C787.3 541 762.7 541 738.2 541C713.7 541 689.3 541 664.8 541C640.3 541 615.7 541 591 541C566.3 541 541.7 541 517 541C492.3 541 467.7 541 443 541C418.3 541 393.7 541 369 541C344.3 541 319.7 541 295.2 541C270.7 541 246.3 541 221.8 541C197.3 541 172.7 541 148 541C123.3 541 98.7 541 74 541C49.3 541 24.7 541 12.3 541L0 541Z" fill="#90b072"></path><path d="M0 397L12.3 382.7C24.7 368.3 49.3 339.7 74 338.7C98.7 337.7 123.3 364.3 148 366.2C172.7 368 197.3 345 221.8 330.3C246.3 315.7 270.7 309.3 295.2 320.5C319.7 331.7 344.3 360.3 369 377.2C393.7 394 418.3 399 443 400.7C467.7 402.3 492.3 400.7 517 396.5C541.7 392.3 566.3 385.7 591 382.7C615.7 379.7 640.3 380.3 664.8 371.8C689.3 363.3 713.7 345.7 738.2 329.7C762.7 313.7 787.3 299.3 812 299C836.7 298.7 861.3 312.3 886 328.2C910.7 344 935.3 362 947.7 371L960 380L960 541L947.7 541C935.3 541 910.7 541 886 541C861.3 541 836.7 541 812 541C787.3 541 762.7 541 738.2 541C713.7 541 689.3 541 664.8 541C640.3 541 615.7 541 591 541C566.3 541 541.7 541 517 541C492.3 541 467.7 541 443 541C418.3 541 393.7 541 369 541C344.3 541 319.7 541 295.2 541C270.7 541 246.3 541 221.8 541C197.3 541 172.7 541 148 541C123.3 541 98.7 541 74 541C49.3 541 24.7 541 12.3 541L0 541Z" fill="#91945b"></path><path d="M0 365L12.3 364.3C24.7 363.7 49.3 362.3 74 370.7C98.7 379 123.3 397 148 401.7C172.7 406.3 197.3 397.7 221.8 390.3C246.3 383 270.7 377 295.2 378.2C319.7 379.3 344.3 387.7 369 392.7C393.7 397.7 418.3 399.3 443 407.2C467.7 415 492.3 429 517 431C541.7 433 566.3 423 591 412.2C615.7 401.3 640.3 389.7 664.8 389.7C689.3 389.7 713.7 401.3 738.2 396.2C762.7 391 787.3 369 812 359.7C836.7 350.3 861.3 353.7 886 365.7C910.7 377.7 935.3 398.3 947.7 408.7L960 419L960 541L947.7 541C935.3 541 910.7 541 886 541C861.3 541 836.7 541 812 541C787.3 541 762.7 541 738.2 541C713.7 541 689.3 541 664.8 541C640.3 541 615.7 541 591 541C566.3 541 541.7 541 517 541C492.3 541 467.7 541 443 541C418.3 541 393.7 541 369 541C344.3 541 319.7 541 295.2 541C270.7 541 246.3 541 221.8 541C197.3 541 172.7 541 148 541C123.3 541 98.7 541 74 541C49.3 541 24.7 541 12.3 541L0 541Z" fill="#8a794d"></path><path d="M0 423L12.3 419.5C24.7 416 49.3 409 74 412.2C98.7 415.3 123.3 428.7 148 429.7C172.7 430.7 197.3 419.3 221.8 424.2C246.3 429 270.7 450 295.2 450.3C319.7 450.7 344.3 430.3 369 422C393.7 413.7 418.3 417.3 443 416.8C467.7 416.3 492.3 411.7 517 414.8C541.7 418 566.3 429 591 425.8C615.7 422.7 640.3 405.3 664.8 409.5C689.3 413.7 713.7 439.3 738.2 440.7C762.7 442 787.3 419 812 406.2C836.7 393.3 861.3 390.7 886 389.7C910.7 388.7 935.3 389.3 947.7 389.7L960 390L960 541L947.7 541C935.3 541 910.7 541 886 541C861.3 541 836.7 541 812 541C787.3 541 762.7 541 738.2 541C713.7 541 689.3 541 664.8 541C640.3 541 615.7 541 591 541C566.3 541 541.7 541 517 541C492.3 541 467.7 541 443 541C418.3 541 393.7 541 369 541C344.3 541 319.7 541 295.2 541C270.7 541 246.3 541 221.8 541C197.3 541 172.7 541 148 541C123.3 541 98.7 541 74 541C49.3 541 24.7 541 12.3 541L0 541Z" fill="#7d6143"></path><path d="M0 441L12.3 441.2C24.7 441.3 49.3 441.7 74 441.3C98.7 441 123.3 440 148 444.8C172.7 449.7 197.3 460.3 221.8 462.3C246.3 464.3 270.7 457.7 295.2 455.2C319.7 452.7 344.3 454.3 369 457.8C393.7 461.3 418.3 466.7 443 466.2C467.7 465.7 492.3 459.3 517 460.8C541.7 462.3 566.3 471.7 591 475.5C615.7 479.3 640.3 477.7 664.8 472.7C689.3 467.7 713.7 459.3 738.2 456.3C762.7 453.3 787.3 455.7 812 465C836.7 474.3 861.3 490.7 886 490.2C910.7 489.7 935.3 472.3 947.7 463.7L960 455L960 541L947.7 541C935.3 541 910.7 541 886 541C861.3 541 836.7 541 812 541C787.3 541 762.7 541 738.2 541C713.7 541 689.3 541 664.8 541C640.3 541 615.7 541 591 541C566.3 541 541.7 541 517 541C492.3 541 467.7 541 443 541C418.3 541 393.7 541 369 541C344.3 541 319.7 541 295.2 541C270.7 541 246.3 541 221.8 541C197.3 541 172.7 541 148 541C123.3 541 98.7 541 74 541C49.3 541 24.7 541 12.3 541L0 541Z" fill="#6a4b3c"></path></svg>